<?xml version="1.0" encoding="UTF-8"?>
<!DOCTYPE svg PUBLIC "-//W3C//DTD SVG 1.1//EN" "http://www.w3.org/Graphics/SVG/1.1/DTD/svg11.dtd">
<!-- Creator: CorelDRAW 2018 (64 Bit) -->
<svg xmlns="http://www.w3.org/2000/svg" xml:space="preserve" width="152.288mm" height="152.288mm" version="1.1" style="shape-rendering:geometricPrecision; text-rendering:geometricPrecision; image-rendering:optimizeQuality; fill-rule:evenodd; clip-rule:evenodd"
viewBox="0 0 15538.7 15538.7"
 xmlns:xlink="http://www.w3.org/1999/xlink">
 <defs>
  <style type="text/css">
   <![CDATA[
    .str0 {stroke:black;stroke-width:226.1;stroke-miterlimit:22.9256}
    .fil0 {fill:#EFD849}
    .fil1 {fill:black;fill-rule:nonzero}
   ]]>
  </style>
 </defs>
 <g id="Ebene_x0020_1">
  <metadata id="CorelCorpID_0Corel-Layer"/>
  <circle class="fil0 str0" cx="7769.35" cy="7769.35" r="7656.3"/>
  <path class="fil1" d="M3005.31 4433.27l1604.77 0c318.52,0 554.85,18.54 710.85,55.62 156.92,38.41 296.1,116.53 419.41,234.4 123.3,119.19 226.05,276.78 308.25,474.1 82.2,197.32 123.3,419.8 123.3,664.79 0,264.86 -50.45,509.85 -151.33,731.01 -100.88,222.48 -238.19,388.01 -411,499.25 243.79,101.97 430.62,274.13 562.33,517.8 130.77,243.67 196.16,529.72 196.16,859.46 0,259.56 -42.04,511.18 -127.04,756.16 -85.01,245 -200.83,440.99 -348.42,587.99 -146.64,145.67 -327.86,235.72 -543.63,270.15 -134.51,19.87 -460.52,33.11 -977.07,38.41l-1366.57 0 0 -5689.12zm812.65 945.54l0 1311.04 530.57 0c314.79,0 510.95,-6.62 587.54,-19.87 138.25,-22.51 247.54,-90.05 326.94,-202.61 79.39,-112.57 118.63,-259.56 118.63,-442.31 0,-176.13 -34.56,-317.83 -102.75,-427.74 -68.19,-109.92 -170.01,-176.13 -304.51,-198.64 -80.33,-13.24 -311.05,-19.87 -691.24,-19.87l-465.18 0zm0 2256.58l0 1525.58 751.02 0c291.43,0 477.32,-11.92 555.78,-34.44 120.5,-31.78 218.59,-107.27 294.24,-227.77 75.67,-121.84 113.96,-282.08 113.96,-484.69 0,-172.16 -28.96,-316.5 -87.8,-435.69 -57.92,-119.19 -142.92,-206.59 -253.14,-260.88 -110.23,-54.29 -350.29,-82.11 -719.26,-82.11l-654.8 0z"/>
  <path class="fil1" d="M9877.89 4433.27l1604.78 0c318.52,0 554.85,18.54 710.84,55.62 156.93,38.41 296.11,116.53 419.41,234.4 123.3,119.19 226.06,276.78 308.26,474.1 82.19,197.32 123.3,419.8 123.3,664.79 0,264.86 -50.45,509.85 -151.33,731.01 -100.88,222.48 -238.2,388.01 -411,499.25 243.79,101.97 430.62,274.13 562.33,517.8 130.77,243.67 196.15,529.72 196.15,859.46 0,259.56 -42.03,511.18 -127.03,756.16 -85.01,245 -200.83,440.99 -348.42,587.99 -146.64,145.67 -327.87,235.72 -543.64,270.15 -134.5,19.87 -460.5,33.11 -977.06,38.41l-1366.58 0 0 -5689.12zm812.66 945.54l0 1311.04 530.56 0c314.8,0 510.95,-6.62 587.55,-19.87 138.25,-22.51 247.54,-90.05 326.93,-202.61 79.4,-112.57 118.64,-259.56 118.64,-442.31 0,-176.13 -34.57,-317.83 -102.76,-427.74 -68.18,-109.92 -170,-176.13 -304.5,-198.64 -80.34,-13.24 -311.05,-19.87 -691.24,-19.87l-465.18 0zm0 2256.58l0 1525.58 751.01 0c291.44,0 477.32,-11.92 555.79,-34.44 120.5,-31.78 218.58,-107.27 294.24,-227.77 75.67,-121.84 113.96,-282.08 113.96,-484.69 0,-172.16 -28.96,-316.5 -87.81,-435.69 -57.9,-119.19 -142.91,-206.59 -253.13,-260.88 -110.23,-54.29 -350.29,-82.11 -719.26,-82.11l-654.8 0z"/>
  <polygon class="fil1" points="6009.12,1798.95 6883.33,1798.95 7897.94,5136.27 8871.65,1798.95 9730.99,1798.95 7843.44,7869.3 "/>
  <path class="fil1" d="M7026.71 9779.04c170.28,0 303.31,79.65 399.5,238.96 114.21,188.17 171.5,500.91 171.5,937.14 0,435.69 -57.71,748.96 -172.73,939.26 -95.38,157.17 -228,235.76 -398.27,235.76 -171.1,0 -309.04,-86.08 -413.83,-258.21 -104.79,-172.13 -157.19,-479.52 -157.19,-921.1 0,-433.55 57.71,-745.74 172.75,-936.06 95.36,-157.17 227.99,-235.75 398.27,-235.75zm0 365.65c-40.12,0 -76.14,17.11 -107.25,51.32 -31.52,33.68 -56.08,94.62 -73.26,182.83 -22.93,113.87 -34.39,306.32 -34.39,576.29 0,270.5 10.22,455.99 30.69,557.04 20.47,101.04 46.25,168.39 77.36,202.07 31.11,33.68 66.72,50.25 106.84,50.25 40.11,0 76.13,-17.11 107.65,-51.32 31.11,-33.67 55.67,-94.62 72.86,-182.83 22.92,-112.8 34.39,-304.72 34.39,-575.21 0,-269.97 -10.23,-455.47 -30.7,-556.51 -20.47,-101.04 -46.25,-168.93 -77.36,-202.61 -31.11,-34.21 -66.72,-51.32 -106.83,-51.32z"/>
  <path id="1" class="fil1" d="M8120.48 11554.94l326.63 -47.04c7.79,87.14 28.66,151.82 61.81,193.52 33.15,42.23 77.36,63.08 131.81,63.08 69.17,0 127.7,-42.23 176.01,-126.17 48.29,-83.92 79,-258.2 92.49,-521.76 -84.72,128.3 -190.33,192.45 -317.63,192.45 -137.95,0 -257.48,-69.5 -357.76,-209.02 -100.29,-139.53 -150.23,-320.76 -150.23,-544.21 0,-233.08 52.8,-420.72 158.82,-562.92 106.01,-142.74 241.1,-213.83 404.82,-213.83 178.06,0 324.59,90.34 438.8,270.5 114.21,180.69 171.51,477.39 171.51,891.16 0,420.19 -59.35,723.84 -178.06,909.87 -118.71,186.57 -273.43,279.6 -464.18,279.6 -137.12,0 -247.64,-48.12 -332.37,-144.34 -84.32,-95.7 -138.76,-239.5 -162.5,-430.88zm758.89 -963.32c0,-141.68 -24.97,-251.79 -74.9,-329.85 -49.53,-78.05 -107.25,-117.08 -172.74,-117.08 -62.22,0 -113.8,32.08 -154.73,96.23 -41.34,64.15 -61.81,168.93 -61.81,314.34 0,148.08 22.52,256.6 67.13,326.09 44.62,68.97 100.29,103.72 167.42,103.72 64.67,0 119.12,-33.15 163.32,-99.97 44.21,-66.82 66.31,-164.65 66.31,-293.48z"/>
  <path class="fil1" d="M2565.99 12130.63l884.37 -837.79 314.01 331.47c70.86,74.8 120.84,135.82 149.75,183.22 40.47,66.22 63.81,133.34 70.27,201.17 8.62,88.28 -5.73,173.71 -43.32,256.9 -37.37,83.43 -95.69,162.47 -174.53,237.17 -67.12,63.57 -134.67,111.42 -202.67,143.54 -68.01,32.12 -131.82,50.93 -191.03,56.46 -59.43,5.3 -113.78,1.53 -163.25,-11.94 -49.48,-13.04 -100.58,-37.31 -153.1,-72.55 -52.73,-35.46 -106.46,-82.29 -161.64,-140.52l-328.85 -347.14zm224.69 29.37l194.35 205.16c60.05,63.38 112.48,108.02 157.56,133.76 45.07,25.71 87.46,39.95 127.59,42.73 56.22,3.68 115.96,-8.3 178.82,-35.96 62.84,-27.66 127.72,-72.98 194.62,-136.36 92.64,-87.76 148.17,-171.81 166.8,-251.92 18.63,-80.12 14.01,-151.8 -13.88,-215.05 -20.11,-45.55 -66.13,-106.08 -137.83,-181.78l-191.17 -201.79 -676.86 641.21zm1150.98 505.73c108.09,-170.52 242.82,-272.46 403.8,-305.73 160.98,-33.26 320.21,0.17 478.13,100.27 103.45,65.57 182.04,147.28 236.48,245.23 54.18,97.78 77.41,201.15 69.47,309.92 -7.8,108.53 -44.19,214.38 -109.31,317.13 -66.04,104.2 -148.18,183.06 -246.11,236.15 -98.08,53.32 -202.44,74.48 -313.05,63.45 -111.03,-10.96 -215.08,-47.35 -312.27,-108.95 -105.55,-66.89 -184.72,-149.99 -238.25,-249.37 -53.25,-99.22 -75.94,-202.9 -67.36,-310.95 8.43,-107.79 41.26,-206.84 98.48,-297.14zm151.7 99.51c-78.48,123.82 -104.05,244.26 -76.69,361.31 27.37,117.05 95.68,210.38 205.12,279.75 111.52,70.68 225.75,92.72 343.47,66.62 117.47,-26.26 218.1,-105.5 301.89,-237.71 52.98,-83.59 83.9,-166.39 92.63,-248.15 8.71,-81.76 -5.68,-158.72 -43.14,-230.46 -37.69,-71.9 -93.21,-131.27 -166.95,-178 -104.75,-66.39 -215.87,-90.49 -333.34,-72.28 -117.45,18.21 -225.07,104.44 -322.99,258.92zm995.09 1251.56l394.97 -1152.39 555.67 190.45c111.77,38.31 193.11,77.88 244.11,118.44 51,40.56 84.89,92.94 101.69,157.15 16.82,64.21 14.17,128.05 -7.52,191.36 -28.04,81.81 -80.58,140.86 -157.28,177.21 -76.71,36.36 -177.57,41.37 -303.04,15.44 37.45,34.43 64.09,65.14 80.43,91.72 34.47,57.37 62.72,124.31 84.56,200.45l109.28 388.16 -207.2 -71.02 -83.58 -296.63c-24.34,-85.97 -46.21,-152.53 -64.84,-199.98 -18.93,-47.56 -38.21,-82.65 -57.96,-105.89 -19.55,-22.89 -41.44,-41.78 -65.11,-56.49 -17.47,-9.9 -47.48,-22.27 -90.38,-36.98l-192.03 -65.81 -175.41 511.81 -166.36 -57.01zm387.01 -586.78l356.04 122.03c75.87,26.01 137.31,38.97 184.89,39.09 47.48,0.39 87.77,-11.58 120.61,-36.01 33.03,-24.05 55.89,-54.58 68.67,-91.86 18.66,-54.47 12.81,-106.83 -18.05,-156.66 -30.86,-49.85 -92.59,-90.49 -185.1,-122.2l-396.31 -135.84 -130.74 381.45zm1379.62 1055.37l142.44 -1065.8 -432.99 -57.87 18.93 -141.66 1040.29 139.03 -18.93 141.66 -433.01 -57.86 -142.43 1065.8 -174.31 -23.29zm986.99 112.47l-161.38 -1207.46 260.53 -34.82 424.93 813.2c39.37,75.71 68.13,132.51 86.57,170.38 9.12,-45.83 24.03,-113.64 44.46,-203.05l203.95 -882.08 232.7 -31.09 161.36 1207.46 -166.94 22.3 -135 -1010.16 -248.47 1061.41 -156.56 20.92 -516.66 -978.03 137.49 1028.71 -166.96 22.32zm2166.96 -1707.72l167.26 -54.3 217.24 669.15c37.82,116.51 53.48,213.69 47.27,291.43 -6.62,77.58 -40.13,150.18 -100.73,217.25 -60.91,67.18 -151.61,120.48 -273.1,159.92 -117.67,38.2 -220.24,50.93 -307.24,37.73 -87.29,-13.1 -158.21,-49.7 -213.22,-110.25 -55.02,-60.55 -102.59,-152.13 -142.43,-274.85l-217.24 -669.15 167.26 -54.3 217.16 668.88c32.66,100.6 67.09,171.7 102.76,212.6 35.74,41.16 82.36,66.86 140.28,76.39 57.7,9.89 122.34,3.21 193.64,-19.94 122.06,-39.63 200.9,-93.56 236.28,-161.39 35.3,-68.1 29.25,-174.65 -18.04,-320.3l-217.15 -668.88zm976.36 870.2l-661.16 -1023.17 151.32 -97.79 1103.01 425.7 -518.95 -803.1 141.47 -91.41 661.15 1023.17 -151.33 97.78 -1102.99 -425.7 518.96 803.1 -141.48 91.42zm1266.98 -869.75l-884.03 -838.14 314.15 -331.35c70.89,-74.77 129.14,-127.96 174.93,-159.37 63.95,-43.96 129.72,-70.87 197.11,-80.95 87.68,-13.36 173.78,-3.59 258.86,29.47 85.31,32.83 167.37,86.83 246.18,161.56 67.09,63.6 118.48,128.48 154.22,194.66 35.72,66.18 57.93,128.9 66.63,187.73 8.48,59.06 7.64,113.52 -3.16,163.64 -10.37,50.11 -31.86,102.44 -64.22,156.78 -32.58,54.56 -76.47,110.74 -131.66,168.95l-329 347.01zm17.27 -225.95l194.44 -205.07c60.07,-63.36 101.84,-118.13 125.11,-164.52 23.26,-46.39 35.2,-89.47 35.82,-129.7 0.66,-56.33 -14.5,-115.35 -45.5,-176.63 -31,-61.27 -79.72,-123.63 -146.6,-187.03 -92.61,-87.79 -179.52,-138.73 -260.51,-153.03 -81.01,-14.31 -152.34,-5.84 -214.01,25.41 -44.41,22.52 -102.37,71.72 -174.1,147.39l-191.25 201.71 676.6 641.47z"/>
 </g>
</svg>
